<svg width="192" height="64" viewBox="0 0 192 64" fill="none" xmlns="http://www.w3.org/2000/svg">
<g filter="url(#filter0_d_607_2851)">
<path d="M9.52807 32.811L7.04514 9.35734L11.3354 8.8905L11.6694 12.0461L12.5527 11.95L11.9189 12.7954C11.7805 11.4876 12.0337 10.3961 12.6785 9.52077C13.3233 8.64543 14.2205 8.14521 15.3702 8.02011C16.6039 7.88585 17.6115 8.29382 18.3928 9.24403C19.2022 10.1912 19.6987 11.5318 19.8823 13.266L18.7357 11.2772L20.1658 11.1216L19.7002 11.9486C19.5618 10.6409 19.815 9.54938 20.4598 8.67404C21.1046 7.7987 22.0298 7.29543 23.2356 7.16423C24.6657 7.00861 25.8585 7.42519 26.8141 8.41394C27.7697 9.40269 28.3453 10.821 28.5409 12.6689L30.4324 30.5363L25.8057 31.0398L23.9367 13.3855C23.8555 12.618 23.624 12.0393 23.2424 11.6495C22.8578 11.2312 22.343 11.0572 21.698 11.1274C21.0811 11.1945 20.613 11.4611 20.2936 11.9272C20.0023 12.3902 19.8987 13.0198 19.983 13.8158L21.852 31.47L18.0665 31.8819L16.1975 14.2277C16.1132 13.4317 15.8803 12.8388 15.4986 12.449C15.117 12.0591 14.6037 11.8993 13.9588 11.9695C13.3139 12.0397 12.8457 12.3063 12.5544 12.7693C12.2911 13.2293 12.2016 13.8573 12.2858 14.6533L14.1548 32.3076L9.52807 32.811Z" fill="#FDFDFD"/>
<path d="M35.7878 36.8041L34.8105 5.51147L53.3298 4.917L53.4757 9.58945L40.1571 10.017L40.4114 18.1616L52.2502 17.7816L52.3948 22.4112L40.556 22.7912L40.8425 31.9647L54.1612 31.5371L54.3071 36.2096L35.7878 36.8041Z" fill="#FDFDFD"/>
<path d="M59.2167 31.277L60.5957 0L66.8502 0.28345L69.4125 10.3595C69.6783 11.3733 69.8916 12.2988 70.0523 13.1361C70.213 13.9734 70.3133 14.579 70.3533 14.9528C70.426 14.5841 70.5792 13.99 70.813 13.1706C71.0467 12.3512 71.3265 11.448 71.6523 10.461L74.9643 0.651169L81.2188 0.93462L79.8398 32.2116L74.8953 31.9876L75.3241 22.2617C75.3871 20.8335 75.498 19.2787 75.6568 17.5973C75.8156 15.9159 75.9886 14.2351 76.1756 12.555C76.3625 10.8748 76.5599 9.28103 76.7675 7.77355C77.0033 6.26734 77.2027 4.94553 77.3658 3.80809L72.5725 18.402L67.7548 18.1837L64.1382 3.20863C64.2312 4.30043 64.3154 5.59217 64.3908 7.08386C64.4675 8.54698 64.525 10.1237 64.5634 11.8141C64.6312 13.4771 64.6696 15.1675 64.6785 16.8851C64.6875 18.6028 64.658 20.2328 64.59 21.7752L64.1612 31.5011L59.2167 31.277Z" fill="#FDFDFD"/>
<path d="M86.8336 38L85.9781 33.1883L93.9714 31.7275L91.5474 18.0944L84.5949 19.365L83.7469 14.5955L95.6952 12.4119L98.9672 30.8145L106.045 29.5211L106.9 34.3328L86.8336 38ZM92.0906 9.06139C91.0359 9.25414 90.1557 9.13899 89.4501 8.71595C88.7394 8.26477 88.3016 7.57489 88.1365 6.64632C87.9714 5.71775 88.1466 4.93036 88.6621 4.28414C89.1726 3.60978 89.9553 3.17622 91.0099 2.98348C92.0646 2.79073 92.9473 2.91995 93.6579 3.37113C94.3636 3.79417 94.7989 4.46998 94.964 5.39855C95.1291 6.32712 94.9564 7.12858 94.4459 7.80294C93.9303 8.44916 93.1452 8.86865 92.0906 9.06139Z" fill="#FDFDFD"/>
<path d="M109.308 34.353L118.54 18.709L111.172 3.09756L117.088 3.36137L120.636 11.3757C120.893 11.9595 121.123 12.5278 121.325 13.0806C121.528 13.6048 121.679 14.0122 121.78 14.3029C121.877 14.021 122.049 13.628 122.297 13.1239C122.545 12.5913 122.823 12.0456 123.13 11.4868L127.4 3.82115L133.148 4.07742L124.462 18.8442L132.298 35.3781L126.382 35.1142L122.404 26.2651C122.147 25.6813 121.904 25.1124 121.674 24.5583C121.472 24.0056 121.321 23.5695 121.222 23.2503C121.096 23.5595 120.908 23.9804 120.659 24.5131C120.41 25.0458 120.133 25.5915 119.826 26.1502L115.055 34.6092L109.308 34.353Z" fill="#FDFDFD"/>
<path d="M137.184 35.5959L138.541 4.31788L157.051 5.14322L156.849 9.81349L143.536 9.21993L143.183 17.3608L155.017 17.8884L154.816 22.5158L142.983 21.9882L142.585 31.1574L155.897 31.751L155.695 36.4212L137.184 35.5959Z" fill="#FDFDFD"/>
<g filter="url(#filter1_d_607_2851)">
<path fill-rule="evenodd" clip-rule="evenodd" d="M185.823 51.0952C96.0498 44.7113 26.4747 54.4319 3.08271 60.0328C1.73995 60.3543 0.390798 59.5264 0.0692929 58.1836C-0.252213 56.8409 0.575676 55.4917 1.91843 55.1702C25.8598 49.4378 95.9513 39.6917 186.178 46.1078C187.555 46.2057 188.592 47.4016 188.494 48.7788C188.396 50.1561 187.2 51.1932 185.823 51.0952Z" fill="#FDFDFD"/>
</g>
<path d="M162.499 36.5233V12.9349H167.49V17.4381H168.802L167.236 20.1829C167.236 17.6382 167.8 15.7226 168.929 14.4359C170.057 13.1493 171.721 12.506 173.92 12.506C176.43 12.506 178.404 13.2923 179.843 14.8648C181.281 16.4374 182 18.6104 182 21.3838V23.0993H176.458V21.7698C176.458 20.2544 176.064 19.0821 175.274 18.253C174.512 17.4238 173.455 17.0092 172.101 17.0092C170.719 17.0092 169.648 17.4238 168.886 18.253C168.153 19.0821 167.786 20.2544 167.786 21.7698V36.5233H162.499Z" fill="#FDFDFD"/>
</g>
<defs>
<filter id="filter0_d_607_2851" x="0" y="0" width="191.5" height="63.1021" filterUnits="userSpaceOnUse" color-interpolation-filters="sRGB">
<feFlood flood-opacity="0" result="BackgroundImageFix"/>
<feColorMatrix in="SourceAlpha" type="matrix" values="0 0 0 0 0 0 0 0 0 0 0 0 0 0 0 0 0 0 127 0" result="hardAlpha"/>
<feOffset dx="3" dy="3"/>
<feColorMatrix type="matrix" values="0 0 0 0 0.0627451 0 0 0 0 0.0666667 0 0 0 0 0.0705882 0 0 0 1 0"/>
<feBlend mode="normal" in2="BackgroundImageFix" result="effect1_dropShadow_607_2851"/>
<feBlend mode="normal" in="SourceGraphic" in2="effect1_dropShadow_607_2851" result="shape"/>
</filter>
<filter id="filter1_d_607_2851" x="0" y="44" width="191.5" height="19.1021" filterUnits="userSpaceOnUse" color-interpolation-filters="sRGB">
<feFlood flood-opacity="0" result="BackgroundImageFix"/>
<feColorMatrix in="SourceAlpha" type="matrix" values="0 0 0 0 0 0 0 0 0 0 0 0 0 0 0 0 0 0 127 0" result="hardAlpha"/>
<feOffset dx="3" dy="3"/>
<feColorMatrix type="matrix" values="0 0 0 0 0.0627451 0 0 0 0 0.0666667 0 0 0 0 0.0705882 0 0 0 1 0"/>
<feBlend mode="normal" in2="BackgroundImageFix" result="effect1_dropShadow_607_2851"/>
<feBlend mode="normal" in="SourceGraphic" in2="effect1_dropShadow_607_2851" result="shape"/>
</filter>
</defs>
</svg>
