<svg width="25" height="24" viewBox="0 0 25 24" fill="none" xmlns="http://www.w3.org/2000/svg">
<path d="M12.54 20.56C11.52 20.56 10.632 20.344 9.876 19.912C9.12 19.492 8.532 18.886 8.112 18.094C7.704 17.314 7.5 16.396 7.5 15.34V9.22C7.5 8.14 7.692 7.21 8.076 6.43C8.472 5.65 9.03 5.05 9.75 4.63C10.482 4.21 11.352 4 12.36 4C13.272 4 14.058 4.18 14.718 4.54C15.378 4.888 15.882 5.392 16.23 6.052C16.59 6.712 16.77 7.498 16.77 8.41V16.15H15.492V15.16H14.988L15.33 14.8C15.33 15.256 15.156 15.628 14.808 15.916C14.46 16.192 13.998 16.33 13.422 16.33C12.642 16.33 12.042 16.096 11.622 15.628C11.214 15.148 11.01 14.452 11.01 13.54V11.38C11.01 10.468 11.214 9.778 11.622 9.31C12.042 8.83 12.642 8.59 13.422 8.59C13.998 8.59 14.46 8.734 14.808 9.022C15.156 9.298 15.33 9.67 15.33 10.138L15.078 9.76H15.51L15.33 8.5V8.41C15.33 7.726 15.216 7.15 14.988 6.682C14.76 6.214 14.424 5.86 13.98 5.62C13.548 5.38 13.008 5.26 12.36 5.26C11.28 5.26 10.44 5.608 9.84 6.304C9.24 7 8.94 7.972 8.94 9.22V15.34C8.94 16.54 9.258 17.482 9.894 18.166C10.542 18.862 11.424 19.21 12.54 19.21H13.8V20.56H12.54ZM13.89 15.196C14.382 15.196 14.742 15.046 14.97 14.746C15.21 14.446 15.33 13.984 15.33 13.36V11.362C15.33 10.798 15.21 10.384 14.97 10.12C14.742 9.856 14.382 9.724 13.89 9.724C13.41 9.724 13.05 9.862 12.81 10.138C12.57 10.402 12.45 10.816 12.45 11.38V13.54C12.45 14.104 12.57 14.524 12.81 14.8C13.05 15.064 13.41 15.196 13.89 15.196Z" fill="#101112"/>
</svg>
