<svg width="25" height="24" viewBox="0 0 25 24" fill="none" xmlns="http://www.w3.org/2000/svg">
<path d="M18.25 14C18.25 13.5858 17.9142 13.25 17.5 13.25C17.0858 13.25 16.75 13.5858 16.75 14H18.25ZM16.75 20C16.75 20.4142 17.0858 20.75 17.5 20.75C17.9142 20.75 18.25 20.4142 18.25 20H16.75ZM16.75 14V20H18.25V14H16.75Z" fill="#101112"/>
<path d="M20.5 17.75C20.9142 17.75 21.25 17.4142 21.25 17C21.25 16.5858 20.9142 16.25 20.5 16.25L20.5 17.75ZM14.5 16.25C14.0858 16.25 13.75 16.5858 13.75 17C13.75 17.4142 14.0858 17.75 14.5 17.75L14.5 16.25ZM20.5 16.25L14.5 16.25L14.5 17.75L20.5 17.75L20.5 16.25Z" fill="#101112"/>
<path d="M9.5 17H11.5M9.5 5V17V5ZM9.5 17H7.5H9.5Z" stroke="#101112" stroke-width="1.5" stroke-linecap="round" stroke-linejoin="round"/>
<path d="M15.5 7V5H3.5V7" stroke="#101112" stroke-width="1.5" stroke-linecap="round" stroke-linejoin="round"/>
</svg>
