<svg width="41" height="40" viewBox="-2 0 60 50" fill="none" xmlns="http://www.w3.org/2000/svg">
<path d="M0.5 20C0.5 8.95431 9.45431 0 20.5 0C31.5457 0 40.5 8.95431 40.5 20C40.5 31.0457 31.5457 40 20.5 40C9.45431 40 0.5 31.0457 0.5 20Z" fill="#101112"/>
<path d="M13.5 21L17.5 25L27.5 15" stroke="#FDFDFD" stroke-width="1.5" stroke-linecap="round" stroke-linejoin="round"/>
<path d="M20.5 38C10.5589 38 2.5 29.9411 2.5 20H-1.5C-1.5 32.1503 8.34974 42 20.5 42V38ZM38.5 20C38.5 29.9411 30.4411 38 20.5 38V42C32.6503 42 42.5 32.1503 42.5 20H38.5ZM20.5 2C30.4411 2 38.5 10.0589 38.5 20H42.5C42.5 7.84974 32.6503 -2 20.5 -2V2ZM20.5 -2C8.34974 -2 -1.5 7.84974 -1.5 20H2.5C2.5 10.0589 10.5589 2 20.5 2V-2Z" fill="#101112"/>
</svg>
