<svg width="20" height="20" viewBox="0 0 20 20" fill="none" xmlns="http://www.w3.org/2000/svg">
<path d="M7.83333 18.3333H3C2.72386 18.3333 2.5 18.1095 2.5 17.8333V14.6666C2.5 14.3905 2.72386 14.1666 3 14.1666H7.83333C8.10948 14.1666 8.33333 14.3905 8.33333 14.6666V17.8333C8.33333 18.1095 8.10948 18.3333 7.83333 18.3333Z" stroke="#101112" stroke-width="1.5"/>
<path d="M12.4167 5.83331H7.58333C7.30719 5.83331 7.08333 5.60946 7.08333 5.33331V2.16665C7.08333 1.8905 7.30719 1.66665 7.58333 1.66665H12.4167C12.6928 1.66665 12.9167 1.8905 12.9167 2.16665V5.33331C12.9167 5.60946 12.6928 5.83331 12.4167 5.83331Z" stroke="#101112" stroke-width="1.5"/>
<path d="M17 18.3333H12.1667C11.8905 18.3333 11.6667 18.1095 11.6667 17.8333V14.6666C11.6667 14.3905 11.8905 14.1666 12.1667 14.1666H17C17.2761 14.1666 17.5 14.3905 17.5 14.6666V17.8333C17.5 18.1095 17.2761 18.3333 17 18.3333Z" stroke="#101112" stroke-width="1.5"/>
<path d="M5.41667 14.1666V11.25C5.41667 10.3295 6.16286 9.58331 7.08334 9.58331H12.9167C13.8372 9.58331 14.5833 10.3295 14.5833 11.25V14.1666" stroke="#101112" stroke-width="1.5"/>
<path d="M10 9.58331V5.83331" stroke="#101112" stroke-width="1.5"/>
</svg>
