<svg width="25" height="24" viewBox="0 0 25 24" fill="none" xmlns="http://www.w3.org/2000/svg">
<g clip-path="url(#clip0_33890_6737)">
<path d="M23.5 3.01006C23.5 3.01006 21.4821 4.20217 20.36 4.54006C19.7577 3.84757 18.9573 3.35675 18.067 3.13398C17.1767 2.91122 16.2395 2.96725 15.3821 3.29451C14.5247 3.62177 13.7884 4.20446 13.273 4.96377C12.7575 5.72309 12.4877 6.62239 12.5 7.54006V8.54006C10.7426 8.58562 9.00127 8.19587 7.43101 7.4055C5.86074 6.61513 4.51032 5.44869 3.5 4.01006C3.5 4.01006 -0.5 13.0101 8.5 17.0101C6.44053 18.408 3.98716 19.109 1.5 19.0101C10.5 24.0101 21.5 19.0101 21.5 7.51006C21.4991 7.23151 21.4723 6.95365 21.42 6.68006C22.4406 5.67355 23.5 3.01006 23.5 3.01006Z" stroke="#101112" stroke-width="1.5" stroke-linecap="round" stroke-linejoin="round"/>
</g>
<defs>
<clipPath id="clip0_33890_6737">
<rect width="24" height="24" fill="white" transform="translate(0.5)"/>
</clipPath>
</defs>
</svg>
