<svg width="177" height="51" viewBox="0 0 177 51" fill="none" xmlns="http://www.w3.org/2000/svg">
<g filter="url(#filter0_d_34188_2480)">
<path d="M5 22.6833V0.405058H8.56452V4.65818H9.41514L8.24047 7.29106C8.24047 4.88771 8.75355 3.07845 9.77969 1.86327C10.8328 0.621091 12.3856 0 14.4379 0C16.7872 0 18.6505 0.742607 20.0277 2.22782C21.4319 3.68603 22.134 5.67082 22.134 8.18219V9.51888H18.4885V8.50624C18.4885 6.75098 18.0564 5.41429 17.1923 4.49615C16.3552 3.55102 15.1535 3.07845 13.5872 3.07845C12.048 3.07845 10.8328 3.55102 9.94172 4.49615C9.07759 5.44129 8.64553 6.77798 8.64553 8.50624V22.6833H5Z" fill="#FDFDFD"/>
<path d="M36.9433 23.0884C35.1881 23.0884 33.6488 22.7373 32.3256 22.0352C31.0295 21.3331 30.0168 20.3475 29.2877 19.0783C28.5856 17.7821 28.2346 16.2834 28.2346 14.5821V8.50624C28.2346 6.77798 28.5856 5.27927 29.2877 4.01008C30.0168 2.7409 31.0295 1.75525 32.3256 1.05315C33.6488 0.351051 35.1881 0 36.9433 0C38.6986 0 40.2243 0.351051 41.5205 1.05315C42.8437 1.75525 43.8563 2.7409 44.5584 4.01008C45.2875 5.27927 45.6521 6.77798 45.6521 8.50624V12.4353H31.7991V14.5821C31.7991 16.3374 32.2446 17.6876 33.1358 18.6327C34.0269 19.5508 35.2961 20.0099 36.9433 20.0099C38.3475 20.0099 39.4817 19.7669 40.3458 19.2808C41.2099 18.7677 41.7365 18.0116 41.9255 17.0125H45.5711C45.328 18.8757 44.4099 20.361 42.8167 21.4681C41.2504 22.5483 39.2927 23.0884 36.9433 23.0884ZM42.0876 10.005V8.50624C42.0876 6.75098 41.642 5.40078 40.7509 4.45565C39.8867 3.51051 38.6176 3.03794 36.9433 3.03794C35.2961 3.03794 34.0269 3.51051 33.1358 4.45565C32.2446 5.40078 31.7991 6.75098 31.7991 8.50624V9.68091H42.3711L42.0876 10.005Z" fill="#FDFDFD"/>
<path d="M61.231 6.44044C60.1779 6.44044 59.3138 6.14339 58.6387 5.54931C57.9906 4.95522 57.6665 4.1721 57.6665 3.19996C57.6665 2.22782 57.9906 1.45821 58.6387 0.891127C59.3138 0.297042 60.1779 0 61.231 0C62.3112 0 63.1753 0.297042 63.8234 0.891127C64.4715 1.45821 64.7955 2.22782 64.7955 3.19996C64.7955 4.1721 64.4715 4.95522 63.8234 5.54931C63.1753 6.14339 62.3112 6.44044 61.231 6.44044ZM61.231 23.0884C60.1779 23.0884 59.3138 22.7913 58.6387 22.1972C57.9906 21.6031 57.6665 20.8335 57.6665 19.8884C57.6665 18.8892 57.9906 18.1061 58.6387 17.539C59.3138 16.945 60.1779 16.6479 61.231 16.6479C62.3112 16.6479 63.1753 16.945 63.8234 17.539C64.4715 18.1061 64.7955 18.8892 64.7955 19.8884C64.7955 20.8335 64.4715 21.6031 63.8234 22.1972C63.1753 22.7913 62.3112 23.0884 61.231 23.0884Z" fill="#FDFDFD"/>
<path d="M75.0682 22.6833V0.405058H79.8479V3.64553H80.8201L80.0504 4.21261C80.0504 2.94343 80.415 1.93078 81.1441 1.17467C81.8732 0.391556 82.7778 0 83.858 0C85.0192 0 85.9238 0.499573 86.5719 1.49872C87.22 2.49786 87.544 3.82105 87.544 5.46829L86.8149 3.64553H87.9491L87.5845 4.21261C87.5845 2.94343 87.9356 1.93078 88.6377 1.17467C89.3398 0.391556 90.2849 0 91.4731 0C92.8233 0 93.917 0.513074 94.7541 1.53922C95.5912 2.53837 96.0098 3.91557 96.0098 5.67082V22.6833H90.7845V6.07588C90.7845 5.45479 90.6495 4.98222 90.3794 4.65818C90.1094 4.30713 89.7178 4.1316 89.2048 4.1316C88.6917 4.1316 88.3001 4.30713 88.0301 4.65818C87.7601 4.98222 87.625 5.45479 87.625 6.07588V22.6833H83.4529V6.07588C83.4529 5.45479 83.3179 4.98222 83.0479 4.65818C82.7778 4.30713 82.3863 4.1316 81.8732 4.1316C81.3601 4.1316 80.9686 4.30713 80.6985 4.65818C80.4285 4.98222 80.2935 5.45479 80.2935 6.07588V22.6833H75.0682Z" fill="#FDFDFD"/>
<path d="M109.847 23.0884C107.876 23.0884 106.147 22.7238 104.662 21.9947C103.204 21.2386 102.07 20.1989 101.26 18.8757C100.477 17.5255 100.085 15.9593 100.085 14.1771V8.91129C100.085 7.12904 100.477 5.57631 101.26 4.25312C102.07 2.90292 103.204 1.86327 104.662 1.13416C106.147 0.378055 107.876 0 109.847 0C111.818 0 113.519 0.378055 114.951 1.13416C116.409 1.86327 117.53 2.90292 118.313 4.25312C119.123 5.57631 119.528 7.12904 119.528 8.91129V12.9619H105.877V14.1771C105.877 15.5813 106.215 16.6479 106.89 17.377C107.565 18.0791 108.578 18.4302 109.928 18.4302C110.873 18.4302 111.629 18.2682 112.196 17.9441C112.79 17.6201 113.182 17.1745 113.371 16.6074H119.325C118.839 18.5517 117.732 20.1179 116.004 21.3061C114.303 22.4943 112.25 23.0884 109.847 23.0884ZM113.736 9.84293V8.83028C113.736 7.45308 113.411 6.39993 112.763 5.67082C112.142 4.94172 111.17 4.57716 109.847 4.57716C108.524 4.57716 107.525 4.95522 106.85 5.71133C106.201 6.46744 105.877 7.53409 105.877 8.91129V9.51888L114.141 9.43787L113.736 9.84293Z" fill="#FDFDFD"/>
<path d="M123.644 22.6833V0.405058H128.423V3.64553H129.395L128.626 4.21261C128.626 2.94343 128.99 1.93078 129.72 1.17467C130.449 0.391556 131.353 0 132.433 0C133.595 0 134.499 0.499573 135.147 1.49872C135.795 2.49786 136.119 3.82105 136.119 5.46829L135.39 3.64553H136.525L136.16 4.21261C136.16 2.94343 136.511 1.93078 137.213 1.17467C137.915 0.391556 138.86 0 140.049 0C141.399 0 142.492 0.513074 143.329 1.53922C144.167 2.53837 144.585 3.91557 144.585 5.67082V22.6833H139.36V6.07588C139.36 5.45479 139.225 4.98222 138.955 4.65818C138.685 4.30713 138.293 4.1316 137.78 4.1316C137.267 4.1316 136.876 4.30713 136.606 4.65818C136.335 4.98222 136.2 5.45479 136.2 6.07588V22.6833H132.028V6.07588C132.028 5.45479 131.893 4.98222 131.623 4.65818C131.353 4.30713 130.962 4.1316 130.449 4.1316C129.936 4.1316 129.544 4.30713 129.274 4.65818C129.004 4.98222 128.869 5.45479 128.869 6.07588V22.6833H123.644Z" fill="#FDFDFD"/>
<path d="M158.422 23.0884C156.451 23.0884 154.723 22.7238 153.238 21.9947C151.779 21.2386 150.645 20.1989 149.835 18.8757C149.052 17.5255 148.66 15.9593 148.66 14.1771V8.91129C148.66 7.12904 149.052 5.57631 149.835 4.25312C150.645 2.90292 151.779 1.86327 153.238 1.13416C154.723 0.378055 156.451 0 158.422 0C160.394 0 162.095 0.378055 163.526 1.13416C164.984 1.86327 166.105 2.90292 166.888 4.25312C167.698 5.57631 168.103 7.12904 168.103 8.91129V12.9619H154.453V14.1771C154.453 15.5813 154.79 16.6479 155.465 17.377C156.141 18.0791 157.153 18.4302 158.503 18.4302C159.449 18.4302 160.205 18.2682 160.772 17.9441C161.366 17.6201 161.757 17.1745 161.946 16.6074H167.901C167.415 18.5517 166.308 20.1179 164.579 21.3061C162.878 22.4943 160.826 23.0884 158.422 23.0884ZM162.311 9.84293V8.83028C162.311 7.45308 161.987 6.39993 161.339 5.67082C160.718 4.94172 159.746 4.57716 158.422 4.57716C157.099 4.57716 156.1 4.95522 155.425 5.71133C154.777 6.46744 154.453 7.53409 154.453 8.91129V9.51888L162.716 9.43787L162.311 9.84293Z" fill="#FDFDFD"/>
</g>
<g filter="url(#filter1_d_34188_2480)">
<path fill-rule="evenodd" clip-rule="evenodd" d="M170.642 41.6367C88.3403 34.5577 24.368 42.7343 2.82986 47.6562C1.59352 47.9387 0.366031 47.1506 0.0881867 45.8958C-0.189657 44.641 0.587359 43.3947 1.8237 43.1122C23.8676 38.0747 88.3142 29.8808 171.031 36.9956C172.294 37.1042 173.23 38.2312 173.123 39.5128C173.015 40.7944 171.905 41.7453 170.642 41.6367Z" fill="#FDFDFD"/>
</g>
<defs>
<filter id="filter0_d_34188_2480" x="5" y="0" width="166.103" height="26.0883" filterUnits="userSpaceOnUse" color-interpolation-filters="sRGB">
<feFlood flood-opacity="0" result="BackgroundImageFix"/>
<feColorMatrix in="SourceAlpha" type="matrix" values="0 0 0 0 0 0 0 0 0 0 0 0 0 0 0 0 0 0 127 0" result="hardAlpha"/>
<feOffset dx="3" dy="3"/>
<feColorMatrix type="matrix" values="0 0 0 0 0.0627451 0 0 0 0 0.0666667 0 0 0 0 0.0705882 0 0 0 1 0"/>
<feBlend mode="normal" in2="BackgroundImageFix" result="effect1_dropShadow_34188_2480"/>
<feBlend mode="normal" in="SourceGraphic" in2="effect1_dropShadow_34188_2480" result="shape"/>
</filter>
<filter id="filter1_d_34188_2480" x="0.0318604" y="34.2144" width="176.099" height="16.4991" filterUnits="userSpaceOnUse" color-interpolation-filters="sRGB">
<feFlood flood-opacity="0" result="BackgroundImageFix"/>
<feColorMatrix in="SourceAlpha" type="matrix" values="0 0 0 0 0 0 0 0 0 0 0 0 0 0 0 0 0 0 127 0" result="hardAlpha"/>
<feOffset dx="3" dy="3"/>
<feColorMatrix type="matrix" values="0 0 0 0 0.0627451 0 0 0 0 0.0666667 0 0 0 0 0.0705882 0 0 0 1 0"/>
<feBlend mode="normal" in2="BackgroundImageFix" result="effect1_dropShadow_34188_2480"/>
<feBlend mode="normal" in="SourceGraphic" in2="effect1_dropShadow_34188_2480" result="shape"/>
</filter>
</defs>
</svg>
