<svg width="21" height="21" viewBox="0 0 21 21" fill="none" xmlns="http://www.w3.org/2000/svg">
<g clip-path="url(#clip0_33890_3756)">
<path d="M10.501 10.051V12.551M8.00098 10.051H10.501H8.00098ZM13.001 10.051H10.501H13.001ZM10.501 10.051V7.55103V10.051Z" stroke="black" stroke-width="1.5" stroke-linecap="round" stroke-linejoin="round"/>
<path d="M3.83447 17.8843V2.21765C3.83447 1.94151 4.05833 1.71765 4.33447 1.71765H14.0441C14.1766 1.71765 14.3038 1.77033 14.3976 1.8641L17.0214 4.48787C17.1151 4.58164 17.1678 4.70882 17.1678 4.84143V17.8843C17.1678 18.1605 16.944 18.3843 16.6678 18.3843H4.33447C4.05833 18.3843 3.83447 18.1605 3.83447 17.8843Z" stroke="black" stroke-width="1.5" stroke-linecap="round" stroke-linejoin="round"/>
<path d="M13.8345 4.55098V2.01228C13.8345 1.84956 13.9664 1.71765 14.1291 1.71765C14.2072 1.71765 14.2821 1.74869 14.3375 1.80394L17.0815 4.54803C17.1368 4.60328 17.1678 4.67822 17.1678 4.75636C17.1678 4.91908 17.0359 5.05098 16.8731 5.05098H14.3345C14.0583 5.05098 13.8345 4.82713 13.8345 4.55098Z" fill="black" stroke="black" stroke-width="1.5" stroke-linecap="round" stroke-linejoin="round"/>
</g>
<defs>
<clipPath id="clip0_33890_3756">
<rect width="20" height="20" fill="white" transform="translate(0.500977 0.0510254)"/>
</clipPath>
</defs>
</svg>
