<svg width="20" height="20" viewBox="0 0 20 20" fill="none" xmlns="http://www.w3.org/2000/svg">
<g clip-path="url(#clip0_1631_2038)">
<path d="M10 12.5C11.3807 12.5 12.5 11.3807 12.5 10C12.5 8.61925 11.3807 7.5 10 7.5C8.61925 7.5 7.5 8.61925 7.5 10C7.5 11.3807 8.61925 12.5 10 12.5Z" stroke="#101112" stroke-width="1.5" stroke-linecap="round" stroke-linejoin="round"/>
<path d="M16.352 8.66267L15.4372 6.45384L16.6667 4.99984L15 3.33317L13.5539 4.56896L11.2982 3.64129L10.7794 1.6665H9.15083L8.62425 3.66745L6.42034 4.59647L5 3.33317L3.33333 4.99984L4.54447 6.49055L3.64375 8.70509L1.66666 9.1665V10.8332L3.66759 11.3794L4.59646 13.5829L3.33333 14.9998L5 16.6665L6.49263 15.4501L8.66416 16.3434L9.16666 18.3332H10.8333L11.3371 16.3442L13.5459 15.4294C13.9141 15.6926 15 16.6665 15 16.6665L16.6667 14.9998L15.4299 13.541L16.3449 11.3315L18.3332 10.8142L18.3333 9.1665L16.352 8.66267Z" stroke="#101112" stroke-width="1.5" stroke-linecap="round" stroke-linejoin="round"/>
</g>
<defs>
<clipPath id="clip0_1631_2038">
<rect width="20" height="20" fill="white"/>
</clipPath>
</defs>
</svg>
