<svg width="25" height="24" viewBox="0 0 25 24" fill="none" xmlns="http://www.w3.org/2000/svg">
<path d="M14.5 11.9976C14.5 9.5059 12.183 7 9.35714 7C9.02241 7 7.91904 7.00001 7.64286 7.00001C4.80254 7.00001 2.5 9.23752 2.5 11.9976C2.5 14.376 4.20973 16.3664 6.5 16.8714C6.86756 16.9525 7.25006 16.9952 7.64286 16.9952" stroke="#101112" stroke-width="1.5" stroke-linecap="round" stroke-linejoin="round"/>
<path d="M10.5 11.9976C10.5 14.4893 12.817 16.9952 15.6429 16.9952C15.9776 16.9952 17.081 16.9952 17.3571 16.9952C20.1975 16.9952 22.5 14.7577 22.5 11.9976C22.5 9.61921 20.7903 7.62885 18.5 7.12384C18.1324 7.04279 17.7499 7 17.3571 7" stroke="#101112" stroke-width="1.5" stroke-linecap="round" stroke-linejoin="round"/>
</svg>
