<svg width="24" height="25" viewBox="0 0 24 25" fill="none" xmlns="http://www.w3.org/2000/svg">
<path d="M19 20.8469H5C3.89543 20.8469 3 19.9515 3 18.8469V9.84692C3 8.74235 3.89543 7.84692 5 7.84692H19C20.1046 7.84692 21 8.74235 21 9.84692V18.8469C21 19.9515 20.1046 20.8469 19 20.8469Z" stroke="black" stroke-width="1.5"/>
<path d="M16.5 14.8469C16.2239 14.8469 16 14.623 16 14.3469C16 14.0708 16.2239 13.8469 16.5 13.8469C16.7761 13.8469 17 14.0708 17 14.3469C17 14.623 16.7761 14.8469 16.5 14.8469Z" fill="black" stroke="black" stroke-width="1.5" stroke-linecap="round" stroke-linejoin="round"/>
<path d="M18 7.84691V6.45013C18 5.13607 16.7544 4.17908 15.4847 4.51766L4.48467 7.451C3.60917 7.68447 3 8.47737 3 9.38347V9.84691" stroke="black" stroke-width="1.5"/>
</svg>
